<svg width="96" height="144" viewBox="0 0 96 144" fill="none" xmlns="http://www.w3.org/2000/svg">
<path fill-rule="evenodd" clip-rule="evenodd" d="M72.0263 70.9588C71.8926 71.7934 71.5668 72.5878 71.0733 73.2824C70.5799 73.9769 69.9316 74.5537 69.1769 74.9695C67.6572 75.9259 66.3275 76.4041 64.982 76.8823C62.1167 77.8464 59.1011 78.8105 55.9114 79.9289C52.5475 81.0472 49.5319 82.1656 46.8408 82.9755C43.4849 84.0938 40.2952 85.0579 37.2637 86.1763C34.983 87.1274 32.8407 88.3669 30.8922 89.8631C29.0799 91.463 27.4984 93.2948 26.1907 95.3084C24.8451 97.5451 23.9982 100.43 23.9982 103.793C23.9982 110.526 25.6762 115.647 29.0401 118.848C32.396 122.219 38.6172 123.815 47.8381 123.815C57.2411 123.815 63.6206 122.057 66.9924 118.532C70.3404 115.007 72.0184 110.048 72.0184 103.646V70.9588H72.0263ZM47.846 0C64.3092 0 76.3954 3.0466 84.1125 9.29405C91.8375 15.3873 95.7 23.2236 95.7 32.5099V111.644C95.7 114.845 95.0351 118.37 93.8637 122.211C92.6765 126.067 90.3336 129.585 86.6373 132.778C83.1152 135.994 78.2475 138.717 72.0342 140.799C65.821 142.882 57.7635 144 47.854 144C37.9602 144 29.887 142.882 23.6816 140.799C17.4763 138.717 12.6006 135.994 9.07848 132.778C5.80192 129.9 3.31978 126.267 1.86002 122.211C0.672773 118.378 0 114.853 0 111.652V99.0029C0 92.2695 1.84419 86.0221 5.54048 80.569C9.23678 74.9695 14.4369 71.1284 21.1567 68.722C24.5127 67.6036 28.3752 66.4853 32.7364 65.043C37.1054 63.5929 41.1262 62.1506 45.1629 60.878C49.1995 59.5899 52.7217 58.3019 55.7373 57.1758C57.5571 56.4663 59.4054 55.8281 61.2778 55.263L64.3013 53.8207C65.4885 53.1805 66.652 52.2164 67.8314 50.936C69.0028 49.6634 70.008 48.2211 70.8549 46.6168C71.7497 44.8796 72.2107 42.961 72.2004 41.0172V35.8882C72.2128 34.0083 71.8078 32.1481 71.0132 30.4351C70.3483 28.5069 69.0028 26.7484 67.1586 25.1518C65.3144 23.5475 62.7895 22.2672 59.7739 21.2953C56.7504 20.3467 52.7296 19.8607 48.1864 19.8607C38.7834 19.8607 32.5701 21.6347 29.2142 25.3061C26.3648 28.5146 24.6868 32.5176 24.3544 36.9988C24.3544 37.9629 23.5154 38.6031 22.5023 38.6031L2.02623 38.927C1.53984 38.9291 1.0723 38.7439 0.725417 38.4116C0.378531 38.0794 0.180387 37.627 0.17413 37.1531V32.5253C0.17413 28.0287 1.02103 23.8637 2.86522 19.8607C4.71733 15.85 7.57463 12.4949 11.4292 9.60257C15.2917 6.72566 20.3336 4.32694 26.3727 2.72266C32.2535 0.794429 39.472 0 47.8619 0H47.846Z" fill="#0A3871"/>
</svg>
